<?xml version="1.0" encoding="UTF-8" standalone="no"?>
<svg
   width="640"
   height="300"
   viewBox="0 0 169.33334 79.375002"
   version="1.1"
   id="svg8"
   inkscape:version="1.1.1 (1:1.1+202109281949+c3084ef5ed)"
   sodipodi:docname="rescipy_banner.svg"
   inkscape:export-filename="/home/mirco/Documents/git/rescipy-website/docs/logo/rescipy_banner.png"
   inkscape:export-xdpi="96.000008"
   inkscape:export-ydpi="96.000008"
   xmlns:inkscape="http://www.inkscape.org/namespaces/inkscape"
   xmlns:sodipodi="http://sodipodi.sourceforge.net/DTD/sodipodi-0.dtd"
   xmlns="http://www.w3.org/2000/svg"
   xmlns:svg="http://www.w3.org/2000/svg"
   xmlns:rdf="http://www.w3.org/1999/02/22-rdf-syntax-ns#"
   xmlns:cc="http://creativecommons.org/ns#"
   xmlns:dc="http://purl.org/dc/elements/1.1/">
  <defs
     id="defs2">
    <marker
       inkscape:isstock="true"
       style="overflow:visible"
       id="marker4955"
       refX="0"
       refY="0"
       orient="auto"
       inkscape:stockid="Arrow1Lstart">
      <path
         inkscape:connector-curvature="0"
         transform="matrix(0.8,0,0,0.8,10,0)"
         style="fill:#00a800;fill-opacity:1;fill-rule:evenodd;stroke:#00a800;stroke-width:1pt;stroke-opacity:1"
         d="M 0,0 5,-5 -12.5,0 5,5 Z"
         id="path4953" />
    </marker>
    <marker
       inkscape:isstock="true"
       style="overflow:visible"
       id="marker4915"
       refX="0"
       refY="0"
       orient="auto"
       inkscape:stockid="Arrow1Lstart">
      <path
         inkscape:connector-curvature="0"
         transform="matrix(0.8,0,0,0.8,10,0)"
         style="fill:#00a800;fill-opacity:1;fill-rule:evenodd;stroke:#00a800;stroke-width:1pt;stroke-opacity:1"
         d="M 0,0 5,-5 -12.5,0 5,5 Z"
         id="path4913" />
    </marker>
    <marker
       inkscape:isstock="true"
       style="overflow:visible"
       id="marker4881"
       refX="0"
       refY="0"
       orient="auto"
       inkscape:stockid="Arrow1Lstart">
      <path
         inkscape:connector-curvature="0"
         transform="matrix(0.8,0,0,0.8,10,0)"
         style="fill:#00a800;fill-opacity:1;fill-rule:evenodd;stroke:#00a800;stroke-width:1pt;stroke-opacity:1"
         d="M 0,0 5,-5 -12.5,0 5,5 Z"
         id="path4879" />
    </marker>
    <marker
       inkscape:isstock="true"
       style="overflow:visible"
       id="marker4853"
       refX="0"
       refY="0"
       orient="auto"
       inkscape:stockid="Arrow1Lstart">
      <path
         inkscape:connector-curvature="0"
         transform="matrix(0.8,0,0,0.8,10,0)"
         style="fill:#00a800;fill-opacity:1;fill-rule:evenodd;stroke:#00a800;stroke-width:1pt;stroke-opacity:1"
         d="M 0,0 5,-5 -12.5,0 5,5 Z"
         id="path4851" />
    </marker>
    <marker
       inkscape:isstock="true"
       style="overflow:visible"
       id="marker4819"
       refX="0"
       refY="0"
       orient="auto"
       inkscape:stockid="Arrow1Lstart">
      <path
         inkscape:connector-curvature="0"
         transform="matrix(0.8,0,0,0.8,10,0)"
         style="fill:#00a800;fill-opacity:1;fill-rule:evenodd;stroke:#00a800;stroke-width:1pt;stroke-opacity:1"
         d="M 0,0 5,-5 -12.5,0 5,5 Z"
         id="path4817" />
    </marker>
    <marker
       inkscape:isstock="true"
       style="overflow:visible"
       id="Arrow1Lstart"
       refX="0"
       refY="0"
       orient="auto"
       inkscape:stockid="Arrow1Lstart">
      <path
         inkscape:connector-curvature="0"
         transform="matrix(0.8,0,0,0.8,10,0)"
         style="fill:#00a800;fill-opacity:1;fill-rule:evenodd;stroke:#00a800;stroke-width:1pt;stroke-opacity:1"
         d="M 0,0 5,-5 -12.5,0 5,5 Z"
         id="path4541" />
    </marker>
    <marker
       inkscape:isstock="true"
       style="overflow:visible"
       id="marker4955-5"
       refX="0"
       refY="0"
       orient="auto"
       inkscape:stockid="Arrow1Lstart">
      <path
         inkscape:connector-curvature="0"
         transform="matrix(0.8,0,0,0.8,10,0)"
         style="fill:#00a800;fill-opacity:1;fill-rule:evenodd;stroke:#00a800;stroke-width:1pt;stroke-opacity:1"
         d="M 0,0 5,-5 -12.5,0 5,5 Z"
         id="path4953-1" />
    </marker>
    <marker
       inkscape:isstock="true"
       style="overflow:visible"
       id="marker4915-9"
       refX="0"
       refY="0"
       orient="auto"
       inkscape:stockid="Arrow1Lstart">
      <path
         inkscape:connector-curvature="0"
         transform="matrix(0.8,0,0,0.8,10,0)"
         style="fill:#00a800;fill-opacity:1;fill-rule:evenodd;stroke:#00a800;stroke-width:1pt;stroke-opacity:1"
         d="M 0,0 5,-5 -12.5,0 5,5 Z"
         id="path4913-2" />
    </marker>
    <marker
       inkscape:isstock="true"
       style="overflow:visible"
       id="marker4881-2"
       refX="0"
       refY="0"
       orient="auto"
       inkscape:stockid="Arrow1Lstart">
      <path
         inkscape:connector-curvature="0"
         transform="matrix(0.8,0,0,0.8,10,0)"
         style="fill:#00a800;fill-opacity:1;fill-rule:evenodd;stroke:#00a800;stroke-width:1pt;stroke-opacity:1"
         d="M 0,0 5,-5 -12.5,0 5,5 Z"
         id="path4879-6" />
    </marker>
    <marker
       inkscape:isstock="true"
       style="overflow:visible"
       id="marker4853-1"
       refX="0"
       refY="0"
       orient="auto"
       inkscape:stockid="Arrow1Lstart">
      <path
         inkscape:connector-curvature="0"
         transform="matrix(0.8,0,0,0.8,10,0)"
         style="fill:#00a800;fill-opacity:1;fill-rule:evenodd;stroke:#00a800;stroke-width:1pt;stroke-opacity:1"
         d="M 0,0 5,-5 -12.5,0 5,5 Z"
         id="path4851-0" />
    </marker>
    <marker
       inkscape:isstock="true"
       style="overflow:visible"
       id="marker4819-1"
       refX="0"
       refY="0"
       orient="auto"
       inkscape:stockid="Arrow1Lstart">
      <path
         inkscape:connector-curvature="0"
         transform="matrix(0.8,0,0,0.8,10,0)"
         style="fill:#00a800;fill-opacity:1;fill-rule:evenodd;stroke:#00a800;stroke-width:1pt;stroke-opacity:1"
         d="M 0,0 5,-5 -12.5,0 5,5 Z"
         id="path4817-0" />
    </marker>
    <marker
       inkscape:isstock="true"
       style="overflow:visible"
       id="Arrow1Lstart-8"
       refX="0"
       refY="0"
       orient="auto"
       inkscape:stockid="Arrow1Lstart">
      <path
         inkscape:connector-curvature="0"
         transform="matrix(0.8,0,0,0.8,10,0)"
         style="fill:#00a800;fill-opacity:1;fill-rule:evenodd;stroke:#00a800;stroke-width:1pt;stroke-opacity:1"
         d="M 0,0 5,-5 -12.5,0 5,5 Z"
         id="path4541-2" />
    </marker>
  </defs>
  <sodipodi:namedview
     id="base"
     pagecolor="#ffffff"
     bordercolor="#666666"
     borderopacity="1.0"
     inkscape:pageopacity="0.0"
     inkscape:pageshadow="2"
     inkscape:zoom="0.35355339"
     inkscape:cx="360.62446"
     inkscape:cy="93.338095"
     inkscape:document-units="px"
     inkscape:current-layer="layer1"
     showgrid="false"
     inkscape:window-width="1920"
     inkscape:window-height="1015"
     inkscape:window-x="0"
     inkscape:window-y="0"
     inkscape:window-maximized="1"
     fit-margin-top="0"
     fit-margin-left="0"
     fit-margin-right="0"
     fit-margin-bottom="0"
     units="px"
     inkscape:document-rotation="0"
     inkscape:pagecheckerboard="0" />
  <metadata
     id="metadata5">
    <rdf:RDF>
      <cc:Work
         rdf:about="">
        <dc:format>image/svg+xml</dc:format>
        <dc:type
           rdf:resource="http://purl.org/dc/dcmitype/StillImage" />
        <cc:license
           rdf:resource="http://creativecommons.org/licenses/by/4.0/" />
      </cc:Work>
      <cc:License
         rdf:about="http://creativecommons.org/licenses/by/4.0/">
        <cc:permits
           rdf:resource="http://creativecommons.org/ns#Reproduction" />
        <cc:permits
           rdf:resource="http://creativecommons.org/ns#Distribution" />
        <cc:requires
           rdf:resource="http://creativecommons.org/ns#Notice" />
        <cc:requires
           rdf:resource="http://creativecommons.org/ns#Attribution" />
        <cc:permits
           rdf:resource="http://creativecommons.org/ns#DerivativeWorks" />
      </cc:License>
    </rdf:RDF>
  </metadata>
  <g
     inkscape:label="Layer 1"
     inkscape:groupmode="layer"
     id="layer1"
     transform="translate(-60.879223,-22.820517)">
    <g
       id="g1117"
       transform="matrix(1.0000349,0,0,1.0003174,205.84104,-107.83206)"
       inkscape:export-xdpi="96"
       inkscape:export-ydpi="96" />
    <g
       aria-label="p"
       transform="matrix(1.9212061,0,0,1.921206,-230.15681,-103.19447)"
       id="g103112"
       style="font-size:5.50869px;line-height:1.25;letter-spacing:0px;word-spacing:0px;stroke:none;stroke-width:0.0750948;stroke-miterlimit:4;stroke-dasharray:none;stroke-opacity:1" />
    <g
       aria-label="P"
       id="g13976"
       style="font-size:10.5833px;line-height:1.25;letter-spacing:0px;word-spacing:0px;fill:#285479;stroke:none;stroke-width:0.105833;stroke-miterlimit:4;stroke-dasharray:none;stroke-opacity:1"
       inkscape:transform-center-x="0.54188855"
       inkscape:transform-center-y="-26.913936"
       transform="matrix(1.9309609,0,0,1.9309609,-196.16465,-284.46633)" />
    <g
       id="g2040"
       transform="translate(-142.9125,-85.21373)">
      <path
         inkscape:connector-curvature="0"
         id="path18165"
         style="font-weight:bold;font-size:14.1111px;line-height:1.25;letter-spacing:0px;word-spacing:0px;fill:#3571a3;fill-opacity:1;stroke:none;stroke-width:0.105833;stroke-miterlimit:4;stroke-dasharray:none;stroke-opacity:1"
         d="m 226.99556,231.77055 c -1.05363,0 -1.88656,0.25423 -2.49804,0.76223 -0.61148,0.49859 -0.91726,1.19908 -0.91726,2.1022 0,0.46096 0.0804,0.85619 0.2403,1.18545 0.15993,0.32927 0.36209,0.6118 0.60668,0.84698 0.254,0.22577 0.51732,0.41833 0.79013,0.57826 0.27282,0.15052 0.52704,0.28244 0.76223,0.39533 0.3763,0.17873 0.70986,0.34805 1.00149,0.50797 0.29163,0.15052 0.5221,0.31529 0.69143,0.49403 0.17874,0.17874 0.2682,0.39506 0.2682,0.64906 0,0.31044 -0.1127,0.56922 -0.33848,0.77618 -0.21637,0.19756 -0.58785,0.2961 -1.11466,0.2961 -0.508,0 -1.021,-0.0849 -1.53841,-0.25425 -0.508,-0.17874 -1.00178,-0.3713 -1.48156,-0.57826 v 1.98955 c 0.83726,0.40451 1.78743,0.60668 2.85047,0.60668 1.18534,0 2.0976,-0.26332 2.7373,-0.79013 0.64911,-0.53622 0.9741,-1.25139 0.9741,-2.14509 0,-0.52681 -0.0991,-0.96854 -0.29662,-1.32602 -0.19756,-0.35748 -0.47957,-0.66832 -0.84646,-0.93173 -0.35748,-0.2634 -0.79518,-0.51711 -1.31258,-0.76171 -0.6303,-0.30104 -1.10539,-0.55526 -1.42524,-0.76222 -0.31985,-0.20696 -0.47956,-0.48898 -0.47956,-0.84646 0,-0.30104 0.10816,-0.54566 0.32453,-0.73381 0.21637,-0.18815 0.52669,-0.28215 0.93121,-0.28215 0.38571,0 0.76224,0.0515 1.12913,0.15503 0.36689,0.10348 0.78082,0.24955 1.24179,0.4377 l 0.69143,-1.66502 c -0.51741,-0.22578 -1.01626,-0.40015 -1.49603,-0.52245 -0.47038,-0.12229 -0.96871,-0.18345 -1.49552,-0.18345 z m 1.35702,0.53279 a 0.52259559,0.52259559 0 0 1 0.52245,0.52244 0.52259559,0.52259559 0 0 1 -0.52245,0.52245 0.52259559,0.52259559 0 0 1 -0.52245,-0.52245 0.52259559,0.52259559 0 0 1 0.52245,-0.52244 z" />
      <g
         id="g18171"
         transform="translate(-128.96246,-114.9171)"
         style="fill:#3571a3;fill-opacity:1;stroke:none;stroke-width:0.105833;stroke-miterlimit:4;stroke-dasharray:none;stroke-opacity:1">
        <g
           id="g18169"
           style="font-style:normal;font-weight:normal;font-size:10.5833px;line-height:1.25;font-family:sans-serif;letter-spacing:0px;word-spacing:0px;fill:#3571a3;fill-opacity:1;stroke:none;stroke-width:0.105833;stroke-miterlimit:4;stroke-dasharray:none;stroke-opacity:1"
           aria-label="r">
          <path
             id="path18167"
             style="font-weight:bold;fill:#3571a3;fill-opacity:1;stroke:none;stroke-width:0.4;stroke-miterlimit:4;stroke-dasharray:none;stroke-opacity:1"
             d="m 1563.8242,1258.4121 c -4.7082,0.049 -7.6816,0.4004 -7.6816,0.4004 h -4.5196 v 21.8398 h 5.961 v -11.1211 c 0,-1.3866 0.2798,-2.4792 0.8398,-3.2792 0.5867,-0.8001 1.346,-1.3742 2.2793,-1.7208 0.9334,-0.3733 1.9066,-0.5605 2.9199,-0.5605 0.2667,0 0.5734,0.029 0.92,0.082 0.3733,0.026 0.6531,0.066 0.8398,0.1192 l 0.4414,-5.5996 c -0.24,-0.053 -0.5609,-0.095 -0.9609,-0.1211 -0.4,-0.025 -0.7458,-0.039 -1.0391,-0.039 z m -2.414,1.1016 a 1.7313726,1.7191457 0 0 1 1.7304,1.7187 1.7313726,1.7191457 0 0 1 -1.7304,1.7188 1.7313726,1.7191457 0 0 1 -1.7325,-1.7188 1.7313726,1.7191457 0 0 1 1.7325,-1.7187 z"
             transform="matrix(0.26458334,0,0,0.26458334,-67.502217,18.100546)" />
        </g>
      </g>
      <text
         xml:space="preserve"
         style="font-style:normal;font-weight:normal;font-size:10.5833px;line-height:1.25;font-family:sans-serif;letter-spacing:0px;word-spacing:0px;fill:#3571a3;fill-opacity:1;stroke:none;stroke-width:0.144273;stroke-miterlimit:4;stroke-dasharray:none;stroke-opacity:1"
         x="240.88803"
         y="231.58319"
         id="text18175"><tspan
           sodipodi:role="line"
           id="tspan18173"
           style="font-weight:bold;fill:#3571a3;fill-opacity:1;stroke-width:0.144273"
           x="240.88803"
           y="231.58319">y</tspan></text>
      <text
         xml:space="preserve"
         style="font-style:normal;font-weight:normal;font-size:5.64445px;line-height:1.25;font-family:sans-serif;letter-spacing:0px;word-spacing:0px;fill:#6da3d0;fill-opacity:1;stroke:none;stroke-width:0.144273;stroke-miterlimit:4;stroke-dasharray:none;stroke-opacity:1"
         x="245.76941"
         y="232.879"
         id="text18179"><tspan
           sodipodi:role="line"
           id="tspan18177"
           style="font-size:5.64445px;fill:#6da3d0;fill-opacity:1;stroke-width:0.144273"
           x="245.76941"
           y="232.879">thon</tspan></text>
      <text
         xml:space="preserve"
         style="font-style:normal;font-weight:normal;font-size:5.64445px;line-height:1.25;font-family:sans-serif;letter-spacing:0px;word-spacing:0px;fill:#6da3d0;fill-opacity:1;stroke:none;stroke-width:0.144273;stroke-miterlimit:4;stroke-dasharray:none;stroke-opacity:1"
         x="214.07986"
         y="235.03018"
         id="text18183"><tspan
           sodipodi:role="line"
           id="tspan18181"
           style="font-size:5.64445px;fill:#6da3d0;fill-opacity:1;stroke-width:0.144273"
           x="214.07986"
           y="235.03018">for</tspan></text>
      <text
         xml:space="preserve"
         style="font-style:normal;font-weight:normal;font-size:10.5833px;line-height:1.25;font-family:sans-serif;letter-spacing:0px;word-spacing:0px;fill:#3571a3;fill-opacity:1;stroke:none;stroke-width:0.144273;stroke-miterlimit:4;stroke-dasharray:none;stroke-opacity:1"
         x="229.32272"
         y="237.65497"
         id="text18187"><tspan
           sodipodi:role="line"
           id="tspan18185"
           style="font-weight:bold;fill:#3571a3;fill-opacity:1;stroke-width:0.144273"
           x="229.32272"
           y="237.65497">c</tspan></text>
      <text
         xml:space="preserve"
         style="font-style:normal;font-weight:normal;font-size:5.64445px;line-height:1.25;font-family:sans-serif;letter-spacing:0px;word-spacing:0px;fill:#6da3d0;fill-opacity:1;stroke:none;stroke-width:0.144273;stroke-miterlimit:4;stroke-dasharray:none;stroke-opacity:1"
         x="236.62982"
         y="237.70441"
         id="text18191"><tspan
           sodipodi:role="line"
           id="tspan18189"
           style="font-size:5.64445px;fill:#6da3d0;fill-opacity:1;stroke-width:0.144273"
           x="236.62982"
           y="237.70441">entific</tspan></text>
      <text
         xml:space="preserve"
         style="font-style:normal;font-weight:normal;font-size:5.64445px;line-height:1.25;font-family:sans-serif;letter-spacing:0px;word-spacing:0px;fill:#6da3d0;fill-opacity:1;stroke:none;stroke-width:0.144273;stroke-miterlimit:4;stroke-dasharray:none;stroke-opacity:1"
         x="230.14047"
         y="241.96625"
         id="text18195"><tspan
           sodipodi:role="line"
           id="tspan18193"
           style="font-size:5.64445px;fill:#6da3d0;fill-opacity:1;stroke-width:0.144273"
           x="230.14047"
           y="241.96625">earch</tspan></text>
      <text
         xml:space="preserve"
         style="font-style:normal;font-weight:normal;font-size:10.5833px;line-height:1.25;font-family:sans-serif;letter-spacing:0px;word-spacing:0px;fill:#3571a3;fill-opacity:1;stroke:none;stroke-width:0.144273;stroke-miterlimit:4;stroke-dasharray:none;stroke-opacity:1"
         x="217.27698"
         y="241.91687"
         id="text18199"><tspan
           sodipodi:role="line"
           id="tspan18197"
           style="font-weight:bold;fill:#3571a3;fill-opacity:1;stroke-width:0.144273"
           x="217.27698"
           y="241.91687">e</tspan></text>
      <g
         aria-label="P"
         id="g18203"
         style="font-size:10.5833px;line-height:1.25;letter-spacing:0px;word-spacing:0px;fill:#3571a3;fill-opacity:1;stroke:none;stroke-width:0.105833;stroke-miterlimit:4;stroke-dasharray:none;stroke-opacity:1"
         inkscape:transform-center-x="0.28063301"
         inkscape:transform-center-y="-13.938106"
         transform="translate(-65.426834,-122.09383)">
        <path
           id="path18201"
           style="font-weight:bold;font-size:14.1111px;fill:#3571a3;fill-opacity:1;stroke:none;stroke-width:0.4;stroke-miterlimit:4;stroke-dasharray:none;stroke-opacity:1"
           d="m 1615.4004,1238.6426 v 14.9414 h 8.0527 v -8.3281 h 3.6817 c 4.2666,0 6.3984,1.8491 6.3984,5.5468 0,2.0267 -0.6743,3.5014 -2.0254,4.4258 -1.3155,0.8889 -3.1112,1.334 -5.3867,1.334 h -2.5234 -0.1446 -8.0527 v 27.3555 h 8.0527 v -20.7422 h 3.4668 c 3.6978,0 6.6147,-0.5865 8.7481,-1.7598 2.1689,-1.1733 3.7142,-2.7206 4.6386,-4.6406 0.9245,-1.9556 1.3868,-4.0358 1.3868,-6.2402 0,-3.6978 -1.1365,-6.5956 -3.4122,-8.6934 -2.24,-2.1333 -5.814,-3.1992 -10.7207,-3.1992 z m 4.0469,9.3047 a 1.9970068,1.9828972 0 0 1 1.9961,1.9843 1.9970068,1.9828972 0 0 1 -1.9961,1.9825 1.9970068,1.9828972 0 0 1 -1.9981,-1.9825 1.9970068,1.9828972 0 0 1 1.9981,-1.9843 z"
           transform="matrix(0.26458334,0,0,0.26458334,-127.3905,20.128744)" />
      </g>
    </g>
    <g
       id="g18209"
       transform="matrix(3.9470398,0,0,3.9470398,-1280.393,-1264.5207)"
       style="fill:#3571a3;fill-opacity:1;stroke:none;stroke-width:0.105833;stroke-miterlimit:4;stroke-dasharray:none;stroke-opacity:1">
      <g
         id="g18207"
         style="font-style:normal;font-weight:normal;font-size:10.5833px;line-height:1.25;font-family:sans-serif;letter-spacing:0px;word-spacing:0px;fill:#3571a3;fill-opacity:1;stroke:none;stroke-width:0.105833;stroke-miterlimit:4;stroke-dasharray:none;stroke-opacity:1"
         aria-label="r">
        <path
           id="path18205"
           style="font-weight:bold;fill:#3571a3;fill-opacity:1;stroke:none;stroke-width:0.4;stroke-miterlimit:4;stroke-dasharray:none;stroke-opacity:1"
           d="m 1563.8242,1258.4121 c -4.7082,0.049 -7.6816,0.4004 -7.6816,0.4004 h -4.5196 v 21.8398 h 5.961 v -11.1211 c 0,-1.3866 0.2798,-2.4792 0.8398,-3.2792 0.5867,-0.8001 1.346,-1.3742 2.2793,-1.7208 0.9334,-0.3733 1.9066,-0.5605 2.9199,-0.5605 0.2667,0 0.5734,0.029 0.92,0.082 0.3733,0.026 0.6531,0.066 0.8398,0.1192 l 0.4414,-5.5996 c -0.24,-0.053 -0.5609,-0.095 -0.9609,-0.1211 -0.4,-0.025 -0.7458,-0.039 -1.0391,-0.039 z m -2.414,1.1016 a 1.7313726,1.7191457 0 0 1 1.7304,1.7187 1.7313726,1.7191457 0 0 1 -1.7304,1.7188 1.7313726,1.7191457 0 0 1 -1.7325,-1.7188 1.7313726,1.7191457 0 0 1 1.7325,-1.7187 z"
           transform="matrix(0.26458334,0,0,0.26458334,-67.502217,18.100546)" />
      </g>
    </g>
    <g
       aria-label="R"
       id="g18921"
       style="font-size:28.743px;line-height:1.25;letter-spacing:0px;word-spacing:0px;fill:#3571a3;stroke-width:0.391829"
       transform="matrix(1.1082882,0,0,1.1082882,-290.67913,-306.73025)">
      <path
         id="path18919"
         style="font-weight:bold;stroke-width:1.48093"
         d="m 1218.0586,1377.2734 v 25.9766 h 15.5508 v -13.207 h 7.1094 c 8.2386,0 12.3535,3.5708 12.3535,10.7109 0,3.9135 -1.3013,6.7619 -3.9102,8.5469 -2.5402,1.7164 -6.0065,2.5742 -10.4004,2.5742 h -4.873 -0.2793 -15.5508 v 42.9215 h 15.5508 v -30.15 l 9.4453,-0.059 18.793,30.209 h 18.25 l -22.7227,-33.6563 c 4.1881,-2.2656 6.9924,-5.146 8.7773,-8.8535 1.7852,-3.7762 2.6778,-7.7922 2.6778,-12.0488 0,-7.1403 -2.1936,-12.7364 -6.5879,-16.7871 -4.3254,-4.1193 -11.2265,-6.1778 -20.7012,-6.1778 z m 7.8144,15.0918 c 2.1301,10e-4 3.857,1.717 3.8555,3.8321 -4e-4,2.1136 -1.7268,3.8271 -3.8555,3.8281 -2.1302,0 -3.8569,-1.713 -3.8574,-3.8281 0,-2.1166 1.7259,-3.8332 3.8574,-3.8321 z"
         transform="matrix(0.26458334,0,0,0.26458334,60.879223,22.820517)"
         sodipodi:nodetypes="ccccsscscccccccccccscscscccs" />
    </g>
    <g
       id="g2018"
       transform="matrix(1.0890846,0,0,1.0890846,-207.37744,-173.49071)">
      <path
         inkscape:connector-curvature="0"
         id="path19901"
         style="font-weight:bold;font-size:14.1111px;line-height:1.25;letter-spacing:0px;word-spacing:0px;fill:#3571a3;fill-opacity:1;stroke:none;stroke-width:0.105833;stroke-miterlimit:4;stroke-dasharray:none;stroke-opacity:1"
         d="m 316.95395,231.77055 c -1.05363,0 -1.88656,0.25423 -2.49804,0.76223 -0.61148,0.49859 -0.91726,1.19908 -0.91726,2.1022 0,0.46096 0.0804,0.85619 0.2403,1.18545 0.15993,0.32927 0.36209,0.6118 0.60668,0.84698 0.254,0.22577 0.51732,0.41833 0.79013,0.57826 0.27282,0.15052 0.52704,0.28244 0.76223,0.39533 0.3763,0.17873 0.70986,0.34805 1.00149,0.50797 0.29163,0.15052 0.5221,0.31529 0.69143,0.49403 0.17874,0.17874 0.2682,0.39506 0.2682,0.64906 0,0.31044 -0.1127,0.56922 -0.33848,0.77618 -0.21637,0.19756 -0.58785,0.2961 -1.11466,0.2961 -0.508,0 -1.021,-0.0849 -1.53841,-0.25425 -0.508,-0.17874 -1.00178,-0.3713 -1.48156,-0.57826 v 1.98955 c 0.83726,0.40451 1.78743,0.60668 2.85047,0.60668 1.18534,0 2.0976,-0.26332 2.7373,-0.79013 0.64911,-0.53622 0.9741,-1.25139 0.9741,-2.14509 0,-0.52681 -0.0991,-0.96854 -0.29662,-1.32602 -0.19756,-0.35748 -0.47957,-0.66832 -0.84646,-0.93173 -0.35748,-0.2634 -0.79518,-0.51711 -1.31258,-0.76171 -0.6303,-0.30104 -1.10539,-0.55526 -1.42524,-0.76222 -0.31985,-0.20696 -0.47956,-0.48898 -0.47956,-0.84646 0,-0.30104 0.10816,-0.54566 0.32453,-0.73381 0.21637,-0.18815 0.52669,-0.28215 0.93121,-0.28215 0.38571,0 0.76224,0.0515 1.12913,0.15503 0.36689,0.10348 0.78082,0.24955 1.24179,0.4377 l 0.69143,-1.66502 c -0.51741,-0.22578 -1.01626,-0.40015 -1.49603,-0.52245 -0.47038,-0.12229 -0.96871,-0.18345 -1.49552,-0.18345 z m 1.35702,0.53279 a 0.52259559,0.52259559 0 0 1 0.52245,0.52244 0.52259559,0.52259559 0 0 1 -0.52245,0.52245 0.52259559,0.52259559 0 0 1 -0.52245,-0.52245 0.52259559,0.52259559 0 0 1 0.52245,-0.52244 z" />
      <text
         xml:space="preserve"
         style="font-style:normal;font-weight:normal;font-size:10.5833px;line-height:1.25;font-family:sans-serif;letter-spacing:0px;word-spacing:0px;fill:#3571a3;fill-opacity:1;stroke:none;stroke-width:0.144273;stroke-miterlimit:4;stroke-dasharray:none;stroke-opacity:1"
         x="330.84665"
         y="231.58319"
         id="text19911"><tspan
           sodipodi:role="line"
           id="tspan19909"
           style="font-weight:bold;fill:#3571a3;fill-opacity:1;stroke-width:0.144273"
           x="330.84665"
           y="231.58319">y</tspan></text>
      <text
         xml:space="preserve"
         style="font-style:normal;font-weight:normal;font-size:5.64445px;line-height:1.25;font-family:sans-serif;letter-spacing:0px;word-spacing:0px;fill:#6da3d0;fill-opacity:1;stroke:none;stroke-width:0.144273;stroke-miterlimit:4;stroke-dasharray:none;stroke-opacity:1"
         x="335.72806"
         y="232.879"
         id="text19915"><tspan
           sodipodi:role="line"
           id="tspan19913"
           style="font-size:5.64445px;fill:#6da3d0;fill-opacity:1;stroke-width:0.144273"
           x="335.72806"
           y="232.879">thon</tspan></text>
      <text
         xml:space="preserve"
         style="font-style:normal;font-weight:normal;font-size:5.64445px;line-height:1.25;font-family:sans-serif;letter-spacing:0px;word-spacing:0px;fill:#6da3d0;fill-opacity:1;stroke:none;stroke-width:0.144273;stroke-miterlimit:4;stroke-dasharray:none;stroke-opacity:1"
         x="304.0383"
         y="235.03018"
         id="text19919"><tspan
           sodipodi:role="line"
           id="tspan19917"
           style="font-size:5.64445px;fill:#6da3d0;fill-opacity:1;stroke-width:0.144273"
           x="304.0383"
           y="235.03018">for</tspan></text>
      <text
         xml:space="preserve"
         style="font-style:normal;font-weight:normal;font-size:10.5833px;line-height:1.25;font-family:sans-serif;letter-spacing:0px;word-spacing:0px;fill:#3571a3;fill-opacity:1;stroke:none;stroke-width:0.144273;stroke-miterlimit:4;stroke-dasharray:none;stroke-opacity:1"
         x="319.28122"
         y="237.65497"
         id="text19923"><tspan
           sodipodi:role="line"
           id="tspan19921"
           style="font-weight:bold;fill:#3571a3;fill-opacity:1;stroke-width:0.144273"
           x="319.28122"
           y="237.65497">c</tspan></text>
      <text
         xml:space="preserve"
         style="font-style:normal;font-weight:normal;font-size:5.64445px;line-height:1.25;font-family:sans-serif;letter-spacing:0px;word-spacing:0px;fill:#6da3d0;fill-opacity:1;stroke:none;stroke-width:0.144273;stroke-miterlimit:4;stroke-dasharray:none;stroke-opacity:1"
         x="326.58841"
         y="237.70441"
         id="text19927"><tspan
           sodipodi:role="line"
           id="tspan19925"
           style="font-size:5.64445px;fill:#6da3d0;fill-opacity:1;stroke-width:0.144273"
           x="326.58841"
           y="237.70441">entific</tspan></text>
      <text
         xml:space="preserve"
         style="font-style:normal;font-weight:normal;font-size:5.64445px;line-height:1.25;font-family:sans-serif;letter-spacing:0px;word-spacing:0px;fill:#6da3d0;fill-opacity:1;stroke:none;stroke-width:0.144273;stroke-miterlimit:4;stroke-dasharray:none;stroke-opacity:1"
         x="320.09903"
         y="241.96625"
         id="text19931"><tspan
           sodipodi:role="line"
           id="tspan19929"
           style="font-size:5.64445px;fill:#6da3d0;fill-opacity:1;stroke-width:0.144273"
           x="320.09903"
           y="241.96625">earch</tspan></text>
      <text
         xml:space="preserve"
         style="font-style:normal;font-weight:normal;font-size:10.5833px;line-height:1.25;font-family:sans-serif;letter-spacing:0px;word-spacing:0px;fill:#3571a3;fill-opacity:1;stroke:none;stroke-width:0.144273;stroke-miterlimit:4;stroke-dasharray:none;stroke-opacity:1"
         x="307.23544"
         y="241.91687"
         id="text19935"><tspan
           sodipodi:role="line"
           id="tspan19933"
           style="font-weight:bold;fill:#3571a3;fill-opacity:1;stroke-width:0.144273"
           x="307.23544"
           y="241.91687">e</tspan></text>
      <g
         aria-label="P"
         id="g19939"
         style="font-size:10.5833px;line-height:1.25;letter-spacing:0px;word-spacing:0px;fill:#3571a3;fill-opacity:1;stroke:none;stroke-width:0.105833;stroke-miterlimit:4;stroke-dasharray:none;stroke-opacity:1"
         inkscape:transform-center-x="0.28063301"
         inkscape:transform-center-y="-13.938106"
         transform="translate(24.531556,-122.09383)">
        <path
           id="path19937"
           style="font-weight:bold;font-size:14.1111px;fill:#3571a3;fill-opacity:1;stroke:none;stroke-width:0.4;stroke-miterlimit:4;stroke-dasharray:none;stroke-opacity:1"
           d="m 1615.4004,1238.6426 v 13.4388 h 8.0527 v -6.8255 h 3.6817 c 4.2666,0 6.3984,1.8491 6.3984,5.5468 0,2.0267 -0.6743,3.5014 -2.0254,4.4258 -1.3155,0.8889 -3.1112,1.334 -5.3867,1.334 h -2.5234 -0.1446 -8.0527 v 27.3555 h 8.0527 v -20.7422 h 3.4668 c 3.6978,0 6.6147,-0.5865 8.7481,-1.7598 2.1689,-1.1733 3.7142,-2.7206 4.6386,-4.6406 0.9245,-1.9556 1.3868,-4.0358 1.3868,-6.2402 0,-3.6978 -1.1365,-6.5956 -3.4122,-8.6934 -2.24,-2.1333 -5.814,-3.1992 -10.7207,-3.1992 z m 4.0469,7.8021 c 1.1031,5e-4 1.9969,0.889 1.9961,1.9843 -2e-4,1.0946 -0.8937,1.982 -1.9961,1.9825 -1.1032,6e-4 -1.9979,-0.8871 -1.9981,-1.9825 -8e-4,-1.0961 0.8942,-1.9849 1.9981,-1.9843 z"
           transform="matrix(0.26458334,0,0,0.26458334,-127.3905,20.128744)"
           sodipodi:nodetypes="ccccsscsccccccsccscscscscs" />
      </g>
      <g
         aria-label="R"
         id="g20029"
         style="font-size:28.743px;line-height:1.25;letter-spacing:0px;word-spacing:0px;fill:#3571a3;stroke-width:0.391829"
         transform="matrix(0.51644089,0,0,0.51644089,102.53206,36.054247)">
        <path
           id="path20027"
           style="font-weight:bold;stroke-width:1.48093"
           d="m 1218.0586,1377.2734 v 25.9766 h 15.5508 v -13.207 h 7.1094 c 8.2386,0 12.3535,3.5708 12.3535,10.7109 0,3.9135 -1.3013,6.7619 -3.9102,8.5469 -2.5402,1.7164 -6.0065,2.5742 -10.4004,2.5742 h -4.873 -0.2793 -15.5508 v 42.9215 h 15.5508 v -30.15 l 9.4453,-0.059 18.793,30.209 h 18.25 l -22.7227,-33.6563 c 4.1881,-2.2656 6.9924,-5.146 8.7773,-8.8535 1.7852,-3.7762 2.6778,-7.7922 2.6778,-12.0488 0,-7.1403 -2.1936,-12.7364 -6.5879,-16.7871 -4.3254,-4.1193 -11.2265,-6.1778 -20.7012,-6.1778 z m 7.8144,15.0918 c 2.1301,10e-4 3.857,1.717 3.8555,3.8321 -4e-4,2.1136 -1.7268,3.8271 -3.8555,3.8281 -2.1302,0 -3.8569,-1.713 -3.8574,-3.8281 0,-2.1166 1.7259,-3.8332 3.8574,-3.8321 z"
           transform="matrix(0.26458334,0,0,0.26458334,60.879223,22.820517)"
           sodipodi:nodetypes="ccccsscscccccccccccscscscccs" />
      </g>
    </g>
    <g
       id="g2079"
       transform="matrix(2.6595212,0,0,2.6595212,-938.42806,-753.90938)">
      <path
         inkscape:connector-curvature="0"
         id="path22044"
         style="font-weight:bold;font-size:14.1111px;line-height:1.25;letter-spacing:0px;word-spacing:0px;fill:#3571a3;fill-opacity:1;stroke:none;stroke-width:0.105833;stroke-miterlimit:4;stroke-dasharray:none;stroke-opacity:1"
         d="m 407.47453,298.12431 c -1.05363,0 -1.88656,0.25423 -2.49804,0.76223 -0.61148,0.49859 -0.91726,1.19908 -0.91726,2.1022 0,0.46096 0.0804,0.85619 0.2403,1.18545 0.15993,0.32927 0.36209,0.6118 0.60668,0.84698 0.254,0.22577 0.51732,0.41833 0.79013,0.57826 0.27282,0.15052 0.52704,0.28244 0.76223,0.39533 0.3763,0.17873 0.70986,0.34805 1.00149,0.50797 0.29163,0.15052 0.5221,0.31529 0.69143,0.49403 0.17874,0.17874 0.2682,0.39506 0.2682,0.64906 0,0.31044 -0.1127,0.56922 -0.33848,0.77618 -0.21637,0.19756 -0.58785,0.2961 -1.11466,0.2961 -0.508,0 -1.021,-0.0849 -1.53841,-0.25425 -0.508,-0.17874 -1.00178,-0.3713 -1.48156,-0.57826 v 1.98955 c 0.83726,0.40451 1.78743,0.60668 2.85047,0.60668 1.18534,0 2.0976,-0.26332 2.7373,-0.79013 0.64911,-0.53622 0.9741,-1.25139 0.9741,-2.14509 0,-0.52681 -0.0991,-0.96854 -0.29662,-1.32602 -0.19756,-0.35748 -0.47957,-0.66832 -0.84646,-0.93173 -0.35748,-0.2634 -0.79518,-0.51711 -1.31258,-0.76171 -0.6303,-0.30104 -1.10539,-0.55526 -1.42524,-0.76222 -0.31985,-0.20696 -0.47956,-0.48898 -0.47956,-0.84646 0,-0.30104 0.10816,-0.54566 0.32453,-0.73381 0.21637,-0.18815 0.52669,-0.28215 0.93121,-0.28215 0.38571,0 0.76224,0.0515 1.12913,0.15503 0.36689,0.10348 0.78082,0.24955 1.24179,0.4377 l 0.69143,-1.66502 c -0.51741,-0.22578 -1.01626,-0.40015 -1.49603,-0.52245 -0.47038,-0.12229 -0.96871,-0.18345 -1.49552,-0.18345 z m 1.35702,0.53279 c 0.2885,8e-5 0.52236,0.23394 0.52245,0.52244 -8e-5,0.28851 -0.23394,0.52237 -0.52245,0.52245 -0.28851,-8e-5 -0.52237,-0.23394 -0.52245,-0.52245 9e-5,-0.2885 0.23395,-0.52236 0.52245,-0.52244 z"
         sodipodi:nodetypes="scsscccccscscccscssccssssscccsccccc" />
      <text
         xml:space="preserve"
         style="font-style:normal;font-weight:normal;font-size:10.5833px;line-height:1.25;font-family:sans-serif;letter-spacing:0px;word-spacing:0px;fill:#3571a3;fill-opacity:1;stroke:none;stroke-width:0.144273;stroke-miterlimit:4;stroke-dasharray:none;stroke-opacity:1"
         x="416.85617"
         y="307.08997"
         id="text22048"><tspan
           sodipodi:role="line"
           id="tspan22046"
           style="font-weight:bold;fill:#3571a3;fill-opacity:1;stroke-width:0.144273"
           x="416.85617"
           y="307.08997">y</tspan></text>
      <text
         xml:space="preserve"
         style="font-style:normal;font-weight:normal;font-size:10.5833px;line-height:1.25;font-family:sans-serif;letter-spacing:0px;word-spacing:0px;fill:#3571a3;fill-opacity:1;stroke:none;stroke-width:0.144273;stroke-miterlimit:4;stroke-dasharray:none;stroke-opacity:1"
         x="409.23938"
         y="304.80237"
         id="text22052"><tspan
           sodipodi:role="line"
           id="tspan22050"
           style="font-weight:bold;fill:#3571a3;fill-opacity:1;stroke-width:0.144273"
           x="409.23938"
           y="304.80237">c</tspan></text>
      <text
         xml:space="preserve"
         style="font-style:normal;font-weight:normal;font-size:10.5833px;line-height:1.25;font-family:sans-serif;letter-spacing:0px;word-spacing:0px;fill:#3571a3;fill-opacity:1;stroke:none;stroke-width:0.144273;stroke-miterlimit:4;stroke-dasharray:none;stroke-opacity:1"
         x="398.31824"
         y="307.81378"
         id="text22056"><tspan
           sodipodi:role="line"
           id="tspan22054"
           style="font-weight:bold;fill:#3571a3;fill-opacity:1;stroke-width:0.144273"
           x="398.31824"
           y="307.81378">e</tspan></text>
      <g
         aria-label="P"
         id="g22060"
         style="font-size:10.5833px;line-height:1.25;letter-spacing:0px;word-spacing:0px;fill:#3571a3;fill-opacity:1;stroke:none;stroke-width:0.105833;stroke-miterlimit:4;stroke-dasharray:none;stroke-opacity:1"
         inkscape:transform-center-x="0.28063301"
         inkscape:transform-center-y="-13.938106"
         transform="translate(114.45683,-53.302147)">
        <path
           id="path22058"
           style="font-weight:bold;font-size:14.1111px;fill:#3571a3;fill-opacity:1;stroke:none;stroke-width:0.4;stroke-miterlimit:4;stroke-dasharray:none;stroke-opacity:1"
           d="m 1615.4004,1238.6426 v 13.4388 h 8.0527 v -6.8255 h 3.6817 c 4.2666,0 6.3984,1.8491 6.3984,5.5468 0,2.0267 -0.6743,3.5014 -2.0254,4.4258 -1.3155,0.8889 -3.1112,1.334 -5.3867,1.334 h -2.5234 -0.1446 -8.0527 v 21.2266 h 8.0527 v -14.6133 h 3.4668 c 3.6978,0 6.6147,-0.5865 8.7481,-1.7598 2.1689,-1.1733 3.7142,-2.7206 4.6386,-4.6406 0.9245,-1.9556 1.3868,-4.0358 1.3868,-6.2402 0,-3.6978 -1.1365,-6.5956 -3.4122,-8.6934 -2.24,-2.1333 -5.814,-3.1992 -10.7207,-3.1992 z m 4.0469,7.8021 c 1.1031,5e-4 1.9969,0.889 1.9961,1.9843 -2e-4,1.0946 -0.8937,1.982 -1.9961,1.9825 -1.1032,6e-4 -1.9979,-0.8871 -1.9981,-1.9825 -8e-4,-1.0961 0.8942,-1.9849 1.9981,-1.9843 z"
           transform="matrix(0.26458334,0,0,0.26458334,-127.3905,20.128744)"
           sodipodi:nodetypes="ccccsscsccccccsccscscscscs" />
      </g>
      <g
         aria-label="R"
         id="g22064"
         style="font-size:28.743px;line-height:1.25;letter-spacing:0px;word-spacing:0px;fill:#3571a3;stroke-width:0.391829"
         transform="matrix(0.51644089,0,0,0.51644089,194.40861,98.741333)">
        <path
           id="path22062"
           style="font-weight:bold;stroke-width:1.48093"
           d="m 1218.0586,1377.2734 v 25.9766 h 15.5508 v -13.207 h 7.1094 c 8.2386,0 12.3535,3.5708 12.3535,10.7109 0,3.9135 -1.3013,6.7619 -3.9102,8.5469 -2.5402,1.7164 -6.0065,2.5742 -10.4004,2.5742 h -4.873 -0.2793 -15.5508 v 42.9215 h 15.5508 v -30.15 l 9.4453,-0.059 18.793,30.209 h 18.25 l -22.7227,-33.6563 c 4.1881,-2.2656 6.9924,-5.146 8.7773,-8.8535 1.7852,-3.7762 2.6778,-7.7922 2.6778,-12.0488 0,-7.1403 -2.1936,-12.7364 -6.5879,-16.7871 -4.3254,-4.1193 -11.2265,-6.1778 -20.7012,-6.1778 z m 7.8144,15.0918 c 2.1301,10e-4 3.857,1.717 3.8555,3.8321 -4e-4,2.1136 -1.7268,3.8271 -3.8555,3.8281 -2.1302,0 -3.8569,-1.713 -3.8574,-3.8281 0,-2.1166 1.7259,-3.8332 3.8574,-3.8321 z"
           transform="matrix(0.26458334,0,0,0.26458334,60.879223,22.820517)"
           sodipodi:nodetypes="ccccsscscccccccccccscscscccs" />
      </g>
    </g>
    <g
       id="g2053"
       transform="translate(-206.41254,-74.630396)">
      <path
         inkscape:connector-curvature="0"
         id="path1032"
         style="font-weight:bold;font-size:14.1111px;line-height:1.25;letter-spacing:0px;word-spacing:0px;fill:#3571a3;fill-opacity:1;stroke:none;stroke-width:0.10814;stroke-miterlimit:4;stroke-dasharray:none;stroke-opacity:1"
         d="m 407.28577,200.68295 c -1.0766,0 -1.92769,0.25977 -2.5525,0.77885 -0.62482,0.50946 -0.93726,1.22522 -0.93726,2.14803 0,0.47101 0.0822,0.87486 0.24554,1.2113 0.16341,0.33645 0.36998,0.62514 0.6199,0.86545 0.25954,0.23069 0.5286,0.42745 0.80736,0.59086 0.27877,0.15381 0.53853,0.2886 0.77885,0.40395 0.3845,0.18263 0.72534,0.35564 1.02332,0.51905 0.29799,0.1538 0.53349,0.32216 0.70651,0.5048 0.18264,0.18264 0.27405,0.40367 0.27405,0.66321 0,0.31721 -0.11516,0.58163 -0.34586,0.7931 -0.22109,0.20187 -0.60067,0.30256 -1.13897,0.30256 -0.51907,0 -1.04326,-0.0868 -1.57195,-0.25979 -0.51907,-0.18264 -1.02362,-0.3794 -1.51386,-0.59087 v 2.03293 c 0.85551,0.41333 1.8264,0.6199 2.91262,0.6199 1.21118,0 2.14333,-0.26906 2.79698,-0.80735 0.66326,-0.54791 0.99534,-1.27868 0.99534,-2.19186 0,-0.5383 -0.10126,-0.98966 -0.30309,-1.35493 -0.20187,-0.36528 -0.49003,-0.6829 -0.86491,-0.95205 -0.36528,-0.26914 -0.81252,-0.52838 -1.3412,-0.77832 -0.64405,-0.3076 -1.12949,-0.56736 -1.45632,-0.77883 -0.32682,-0.21148 -0.49001,-0.49965 -0.49001,-0.86492 0,-0.3076 0.11052,-0.55756 0.3316,-0.74981 0.22109,-0.19225 0.53818,-0.2883 0.95152,-0.2883 0.39412,0 0.77885,0.0526 1.15374,0.15841 0.37489,0.10574 0.79785,0.25499 1.26887,0.44724 l 0.7065,-1.70132 c -0.52869,-0.2307 -1.03841,-0.40887 -1.52864,-0.53384 -0.48064,-0.12496 -0.98983,-0.18745 -1.52813,-0.18745 z m 1.38661,0.54441 c 0.29479,8e-5 0.53375,0.23904 0.53384,0.53383 -8e-5,0.2948 -0.23904,0.53376 -0.53384,0.53384 -0.2948,-8e-5 -0.53376,-0.23904 -0.53384,-0.53384 9e-5,-0.29479 0.23905,-0.53375 0.53384,-0.53383 z"
         sodipodi:nodetypes="scsscccccscscccscssccssssscccsccccc" />
      <g
         aria-label="P"
         id="g1036"
         style="font-size:10.5833px;line-height:1.25;letter-spacing:0px;word-spacing:0px;fill:#3571a3;fill-opacity:1;stroke:none;stroke-width:0.105833;stroke-miterlimit:4;stroke-dasharray:none;stroke-opacity:1"
         inkscape:transform-center-x="0.28675625"
         inkscape:transform-center-y="-14.242"
         transform="matrix(1.0218027,0,0,1.0218027,107.77759,-154.75412)">
        <path
           id="path1034"
           style="font-weight:bold;font-size:14.1111px;fill:#3571a3;fill-opacity:1;stroke:none;stroke-width:0.4;stroke-miterlimit:4;stroke-dasharray:none;stroke-opacity:1"
           d="m 1615.4004,1238.6426 v 13.4388 h 8.0527 v -6.8255 h 3.6817 c 4.2666,0 6.3984,1.8491 6.3984,5.5468 0,2.0267 -0.6743,3.5014 -2.0254,4.4258 -1.3155,0.8889 -3.1112,1.334 -5.3867,1.334 h -2.5234 -0.1446 -8.0527 v 21.2266 h 8.0527 v -14.6133 h 3.4668 c 3.6978,0 6.6147,-0.5865 8.7481,-1.7598 2.1689,-1.1733 3.7142,-2.7206 4.6386,-4.6406 0.9245,-1.9556 1.3868,-4.0358 1.3868,-6.2402 0,-3.6978 -1.1365,-6.5956 -3.4122,-8.6934 -2.24,-2.1333 -5.814,-3.1992 -10.7207,-3.1992 z m 4.0469,7.8021 c 1.1031,5e-4 1.9969,0.889 1.9961,1.9843 -2e-4,1.0946 -0.8937,1.982 -1.9961,1.9825 -1.1032,6e-4 -1.9979,-0.8871 -1.9981,-1.9825 -8e-4,-1.0961 0.8942,-1.9849 1.9981,-1.9843 z"
           transform="matrix(0.26458334,0,0,0.26458334,-127.3905,20.128744)"
           sodipodi:nodetypes="ccccsscsccccccsccscscscscs" />
      </g>
      <g
         aria-label="R"
         id="g1040"
         style="font-size:28.743px;line-height:1.25;letter-spacing:0px;word-spacing:0px;fill:#3571a3;stroke-width:0.391829"
         transform="matrix(0.51597258,0,0,0.51597258,194.42165,0.88598119)">
        <path
           id="path1038"
           style="font-weight:bold;stroke-width:1.48093"
           d="m 1218.0586,1377.2734 v 25.9766 h 15.5508 v -13.207 h 7.1094 c 8.2386,0 12.3535,3.5708 12.3535,10.7109 0,3.9135 -1.3013,6.7619 -3.9102,8.5469 -2.5402,1.7164 -6.0065,2.5742 -10.4004,2.5742 h -4.873 -0.2793 -15.5508 v 42.9215 h 15.5508 v -30.15 l 9.4453,-0.059 18.793,30.209 h 18.25 l -22.7227,-33.6563 c 4.1881,-2.2656 6.9924,-5.146 8.7773,-8.8535 1.7852,-3.7762 2.6778,-7.7922 2.6778,-12.0488 0,-7.1403 -2.1936,-12.7364 -6.5879,-16.7871 -4.3254,-4.1193 -11.2265,-6.1778 -20.7012,-6.1778 z m 7.8144,15.0918 c 2.1301,10e-4 3.857,1.717 3.8555,3.8321 -4e-4,2.1136 -1.7268,3.8271 -3.8555,3.8281 -2.1302,0 -3.8569,-1.713 -3.8574,-3.8281 0,-2.1166 1.7259,-3.8332 3.8574,-3.8321 z"
           transform="matrix(0.26458334,0,0,0.26458334,60.879223,22.820517)"
           sodipodi:nodetypes="ccccsscscccccccccccscscscccs" />
      </g>
      <text
         xml:space="preserve"
         style="font-style:normal;font-weight:normal;font-size:10.5833px;line-height:1.25;font-family:sans-serif;letter-spacing:0px;word-spacing:0px;fill:#3571a3;fill-opacity:1;stroke:none;stroke-width:0.144273;stroke-miterlimit:4;stroke-dasharray:none;stroke-opacity:1"
         x="398.10602"
         y="209.8308"
         id="text1295"><tspan
           sodipodi:role="line"
           id="tspan1293"
           style="font-weight:bold;fill:#3571a3;fill-opacity:1;stroke-width:0.144273"
           x="398.10602"
           y="209.8308">e</tspan></text>
      <text
         xml:space="preserve"
         style="font-style:normal;font-weight:normal;font-size:10.5833px;line-height:1.25;font-family:sans-serif;letter-spacing:0px;word-spacing:0px;fill:#3571a3;fill-opacity:1;stroke:none;stroke-width:0.144273;stroke-miterlimit:4;stroke-dasharray:none;stroke-opacity:1"
         x="409.10406"
         y="207.48131"
         id="text1299"><tspan
           sodipodi:role="line"
           id="tspan1297"
           style="font-weight:bold;fill:#3571a3;fill-opacity:1;stroke-width:0.144273"
           x="409.10406"
           y="207.48131">c</tspan></text>
      <text
         xml:space="preserve"
         style="font-style:normal;font-weight:normal;font-size:10.5833px;line-height:1.25;font-family:sans-serif;letter-spacing:0px;word-spacing:0px;fill:#3571a3;fill-opacity:1;stroke:none;stroke-width:0.144273;stroke-miterlimit:4;stroke-dasharray:none;stroke-opacity:1"
         x="420.63321"
         y="206.46144"
         id="text1303"><tspan
           sodipodi:role="line"
           id="tspan1301"
           style="font-weight:bold;fill:#3571a3;fill-opacity:1;stroke-width:0.144273"
           x="420.63321"
           y="206.46144">y</tspan></text>
    </g>
    <g
       id="g2066"
       transform="translate(-206.41254,-95.797064)">
      <path
         inkscape:connector-curvature="0"
         id="path1305"
         style="font-weight:bold;font-size:14.1111px;line-height:1.25;letter-spacing:0px;word-spacing:0px;fill:#3571a3;fill-opacity:1;stroke:none;stroke-width:0.10814;stroke-miterlimit:4;stroke-dasharray:none;stroke-opacity:1"
         d="m 407.28577,247.77881 c -1.0766,0 -1.92769,0.25977 -2.5525,0.77885 -0.62482,0.50946 -0.93726,1.22522 -0.93726,2.14803 0,0.47101 0.0822,0.87486 0.24554,1.2113 0.16341,0.33645 0.36998,0.62514 0.6199,0.86545 0.25954,0.23069 0.5286,0.42745 0.80736,0.59086 0.27877,0.15381 0.53853,0.2886 0.77885,0.40395 0.3845,0.18263 0.72534,0.35564 1.02332,0.51905 0.29799,0.1538 0.53349,0.32216 0.70651,0.5048 0.18264,0.18264 0.27405,0.40367 0.27405,0.66321 0,0.31721 -0.11516,0.58163 -0.34586,0.7931 -0.22109,0.20187 -0.60067,0.30256 -1.13897,0.30256 -0.51907,0 -1.04326,-0.0868 -1.57195,-0.25979 -0.51907,-0.18264 -1.02362,-0.3794 -1.51386,-0.59087 v 2.03293 c 0.85551,0.41333 1.8264,0.6199 2.91262,0.6199 1.21118,0 2.14333,-0.26906 2.79698,-0.80735 0.66326,-0.54791 0.99534,-1.27868 0.99534,-2.19186 0,-0.5383 -0.10126,-0.98966 -0.30309,-1.35493 -0.20187,-0.36528 -0.49003,-0.6829 -0.86491,-0.95205 -0.36528,-0.26914 -0.81252,-0.52838 -1.3412,-0.77832 -0.64405,-0.3076 -1.12949,-0.56736 -1.45632,-0.77883 -0.32682,-0.21148 -0.49001,-0.49965 -0.49001,-0.86492 0,-0.3076 0.11052,-0.55756 0.3316,-0.74981 0.22109,-0.19225 0.53818,-0.2883 0.95152,-0.2883 0.39412,0 0.77885,0.0526 1.15374,0.15841 0.37489,0.10574 0.79785,0.25499 1.26887,0.44724 l 0.7065,-1.70132 c -0.52869,-0.2307 -1.03841,-0.40887 -1.52864,-0.53384 -0.48064,-0.12496 -0.98983,-0.18745 -1.52813,-0.18745 z m 1.38661,0.54441 c 0.29479,8e-5 0.53375,0.23904 0.53384,0.53383 -8e-5,0.2948 -0.23904,0.53376 -0.53384,0.53384 -0.2948,-8e-5 -0.53376,-0.23904 -0.53384,-0.53384 9e-5,-0.29479 0.23905,-0.53375 0.53384,-0.53383 z"
         sodipodi:nodetypes="scsscccccscscccscssccssssscccsccccc" />
      <g
         aria-label="P"
         id="g1309"
         style="font-size:10.5833px;line-height:1.25;letter-spacing:0px;word-spacing:0px;fill:#3571a3;fill-opacity:1;stroke:none;stroke-width:0.105833;stroke-miterlimit:4;stroke-dasharray:none;stroke-opacity:1"
         inkscape:transform-center-x="0.28675625"
         inkscape:transform-center-y="-14.242"
         transform="matrix(1.0218027,0,0,1.0218027,107.77759,-107.65826)">
        <path
           id="path1307"
           style="font-weight:bold;font-size:14.1111px;fill:#3571a3;fill-opacity:1;stroke:none;stroke-width:0.4;stroke-miterlimit:4;stroke-dasharray:none;stroke-opacity:1"
           d="m 1615.4004,1238.6426 v 13.4388 h 8.0527 v -6.8255 h 3.6817 c 4.2666,0 6.3984,1.8491 6.3984,5.5468 0,2.0267 -0.6743,3.5014 -2.0254,4.4258 -1.3155,0.8889 -3.1112,1.334 -5.3867,1.334 h -2.5234 -0.1446 -8.0527 v 21.2266 h 8.0527 v -14.6133 h 3.4668 c 3.6978,0 6.6147,-0.5865 8.7481,-1.7598 2.1689,-1.1733 3.7142,-2.7206 4.6386,-4.6406 0.9245,-1.9556 1.3868,-4.0358 1.3868,-6.2402 0,-3.6978 -1.1365,-6.5956 -3.4122,-8.6934 -2.24,-2.1333 -5.814,-3.1992 -10.7207,-3.1992 z m 4.0469,7.8021 c 1.1031,5e-4 1.9969,0.889 1.9961,1.9843 -2e-4,1.0946 -0.8937,1.982 -1.9961,1.9825 -1.1032,6e-4 -1.9979,-0.8871 -1.9981,-1.9825 -8e-4,-1.0961 0.8942,-1.9849 1.9981,-1.9843 z"
           transform="matrix(0.26458334,0,0,0.26458334,-127.3905,20.128744)"
           sodipodi:nodetypes="ccccsscsccccccsccscscscscs" />
      </g>
      <g
         aria-label="R"
         id="g1313"
         style="font-size:28.743px;line-height:1.25;letter-spacing:0px;word-spacing:0px;fill:#3571a3;stroke-width:0.391829"
         transform="matrix(0.51597258,0,0,0.51597258,194.42165,47.981817)">
        <path
           id="path1311"
           style="font-weight:bold;stroke-width:1.48093"
           d="m 1218.0586,1377.2734 v 25.9766 h 15.5508 v -13.207 h 7.1094 c 8.2386,0 12.3535,3.5708 12.3535,10.7109 0,3.9135 -1.3013,6.7619 -3.9102,8.5469 -2.5402,1.7164 -6.0065,2.5742 -10.4004,2.5742 h -4.873 -0.2793 -15.5508 v 42.9215 h 15.5508 v -30.15 l 9.4453,-0.059 18.793,30.209 h 18.25 l -22.7227,-33.6563 c 4.1881,-2.2656 6.9924,-5.146 8.7773,-8.8535 1.7852,-3.7762 2.6778,-7.7922 2.6778,-12.0488 0,-7.1403 -2.1936,-12.7364 -6.5879,-16.7871 -4.3254,-4.1193 -11.2265,-6.1778 -20.7012,-6.1778 z m 7.8144,15.0918 c 2.1301,10e-4 3.857,1.717 3.8555,3.8321 -4e-4,2.1136 -1.7268,3.8271 -3.8555,3.8281 -2.1302,0 -3.8569,-1.713 -3.8574,-3.8281 0,-2.1166 1.7259,-3.8332 3.8574,-3.8321 z"
           transform="matrix(0.26458334,0,0,0.26458334,60.879223,22.820517)"
           sodipodi:nodetypes="ccccsscscccccccccccscscscccs" />
      </g>
      <text
         xml:space="preserve"
         style="font-style:normal;font-weight:normal;font-size:10.5833px;line-height:1.25;font-family:sans-serif;letter-spacing:0px;word-spacing:0px;fill:#3571a3;fill-opacity:1;stroke:none;stroke-width:0.144273;stroke-miterlimit:4;stroke-dasharray:none;stroke-opacity:1"
         x="398.10602"
         y="256.92667"
         id="text1317"><tspan
           sodipodi:role="line"
           id="tspan1315"
           style="font-weight:bold;fill:#3571a3;fill-opacity:1;stroke-width:0.144273"
           x="398.10602"
           y="256.92667">e</tspan></text>
      <text
         xml:space="preserve"
         style="font-style:normal;font-weight:normal;font-size:10.5833px;line-height:1.25;font-family:sans-serif;letter-spacing:0px;word-spacing:0px;fill:#3571a3;fill-opacity:1;stroke:none;stroke-width:0.144273;stroke-miterlimit:4;stroke-dasharray:none;stroke-opacity:1"
         x="409.10406"
         y="254.57719"
         id="text1321"><tspan
           sodipodi:role="line"
           id="tspan1319"
           style="font-weight:bold;fill:#3571a3;fill-opacity:1;stroke-width:0.144273"
           x="409.10406"
           y="254.57719">c</tspan></text>
      <text
         xml:space="preserve"
         style="font-style:normal;font-weight:normal;font-size:10.5833px;line-height:1.25;font-family:sans-serif;letter-spacing:0px;word-spacing:0px;fill:#3571a3;fill-opacity:1;stroke:none;stroke-width:0.144273;stroke-miterlimit:4;stroke-dasharray:none;stroke-opacity:1"
         x="421.50443"
         y="255.82216"
         id="text1325"><tspan
           sodipodi:role="line"
           id="tspan1323"
           style="font-weight:bold;fill:#3571a3;fill-opacity:1;stroke-width:0.144273"
           x="421.50443"
           y="255.82216">y</tspan></text>
    </g>
  </g>
</svg>
